<?xml version="1.0" encoding="UTF-8" standalone="no"?>
<svg
   id="svg6"
   xml:space="preserve"
   viewBox="0 0 507.39999 116.27"
   y="0px"
   x="0px"
   version="1.1"
   sodipodi:docname="ddix-logo-white-noslogan.svg"
   width="507.39999"
   height="116.27"
   inkscape:version="1.2.2 (b0a8486541, 2022-12-01)"
   xmlns:inkscape="http://www.inkscape.org/namespaces/inkscape"
   xmlns:sodipodi="http://sodipodi.sourceforge.net/DTD/sodipodi-0.dtd"
   xmlns="http://www.w3.org/2000/svg"
   xmlns:svg="http://www.w3.org/2000/svg"
   xmlns:rdf="http://www.w3.org/1999/02/22-rdf-syntax-ns#"
   xmlns:cc="http://creativecommons.org/ns#"
   xmlns:dc="http://purl.org/dc/elements/1.1/"><sodipodi:namedview
     id="namedview7"
     pagecolor="#209680"
     bordercolor="#999999"
     borderopacity="1"
     inkscape:showpageshadow="0"
     inkscape:pageopacity="1"
     inkscape:pagecheckerboard="0"
     inkscape:deskcolor="#d1d1d1"
     showgrid="false"
     inkscape:zoom="0.98697917"
     inkscape:cx="254.31135"
     inkscape:cy="87.134565"
     inkscape:window-width="1920"
     inkscape:window-height="1019"
     inkscape:window-x="0"
     inkscape:window-y="0"
     inkscape:window-maximized="1"
     inkscape:current-layer="svg6" /><metadata
     id="metadata12"><rdf:RDF><cc:Work
         rdf:about=""><dc:format>image/svg+xml</dc:format><dc:type
           rdf:resource="http://purl.org/dc/dcmitype/StillImage" /></cc:Work></rdf:RDF></metadata><defs
     id="defs10" /><path
     id="path4"
     d="m 0,0 v 26.24 h 53.65 c 9.97,0 17.94,2.82 23.92,8.47 5.98,5.81 9.13,13.62 9.13,23.42 0,9.97 -3.15,17.77 -9.13,23.42 -5.98,5.65 -13.95,8.47 -23.92,8.47 H 32.89 V 59.13 H 0 v 57.14 h 54.98 c 12.62,0 23.92,-2.33 33.88,-7.15 9.8,-4.65 17.44,-11.46 22.92,-20.26 5.32,-8.64 8.14,-18.94 8.14,-30.73 0,-11.63 -2.82,-21.92 -8.14,-30.73 C 106.3,18.77 98.66,11.96 88.86,7.14 78.9,2.49 67.6,0 54.98,0 Z m 137.22,0 v 26.24 h 53.66 c 9.96,0 17.93,2.82 23.91,8.47 5.98,5.81 9.14,13.62 9.14,23.42 0,9.97 -3.16,17.77 -9.14,23.42 -5.98,5.65 -13.95,8.47 -23.91,8.47 H 170.11 V 59.13 h -32.89 v 57.14 h 54.98 c 12.63,0 23.92,-2.33 33.89,-7.15 9.8,-4.65 17.44,-11.46 22.92,-20.26 5.31,-8.64 8.14,-18.94 8.14,-30.73 0,-11.63 -2.83,-21.92 -8.14,-30.73 C 243.53,18.77 235.89,11.96 226.09,7.14 216.12,2.49 204.83,0 192.2,0 Z m 202.11,0 v 116.27 h 32.89 V 0 Z m 46.65,0 25.75,36.54 19.6,-24.25 L 423.02,0 Z m 83.22,0 -85.05,116.27 h 37.54 L 504.74,0 Z M 271.12,56.8 v 24.25 h 48.5 V 56.8 Z m 208.87,21.43 -19.27,24.91 8.81,13.13 h 37.87 z"
     fill="#ffffff"
     sodipodi:nodetypes="ccscsssccccsccsccscccscsssccccsccsccscccccccccccccccccccccccccc" /></svg>
