<?xml version="1.0" encoding="UTF-8" standalone="no"?>
<svg
   id="svg6"
   xml:space="preserve"
   viewBox="0 0 512 173.7"
   y="0px"
   x="0px"
   version="1.1"
   sodipodi:docname="ddix-logo-petrol.svg"
   width="512"
   height="173.7"
   inkscape:version="1.2.2 (b0a8486541, 2022-12-01)"
   xmlns:inkscape="http://www.inkscape.org/namespaces/inkscape"
   xmlns:sodipodi="http://sodipodi.sourceforge.net/DTD/sodipodi-0.dtd"
   xmlns="http://www.w3.org/2000/svg"
   xmlns:svg="http://www.w3.org/2000/svg"
   xmlns:rdf="http://www.w3.org/1999/02/22-rdf-syntax-ns#"
   xmlns:cc="http://creativecommons.org/ns#"
   xmlns:dc="http://purl.org/dc/elements/1.1/"><sodipodi:namedview
     id="namedview7"
     pagecolor="#209680"
     bordercolor="#999999"
     borderopacity="1"
     inkscape:showpageshadow="0"
     inkscape:pageopacity="1"
     inkscape:pagecheckerboard="0"
     inkscape:deskcolor="#d1d1d1"
     showgrid="false"
     inkscape:zoom="0.98697917"
     inkscape:cx="254.31135"
     inkscape:cy="87.134565"
     inkscape:window-width="1920"
     inkscape:window-height="1019"
     inkscape:window-x="0"
     inkscape:window-y="0"
     inkscape:window-maximized="1"
     inkscape:current-layer="svg6" /><metadata
     id="metadata12"><rdf:RDF><cc:Work
         rdf:about=""><dc:format>image/svg+xml</dc:format><dc:type
           rdf:resource="http://purl.org/dc/dcmitype/StillImage" /></cc:Work></rdf:RDF></metadata><defs
     id="defs10" /><path
     id="path4"
     d="m 0,0 v 26.24 h 53.65 c 9.97,0 17.94,2.82 23.92,8.47 5.98,5.81 9.13,13.62 9.13,23.42 0,9.97 -3.15,17.77 -9.13,23.42 -5.98,5.65 -13.95,8.47 -23.92,8.47 H 32.89 V 59.13 H 0 v 57.14 h 54.98 c 12.62,0 23.92,-2.33 33.88,-7.15 9.8,-4.65 17.44,-11.46 22.92,-20.26 5.32,-8.64 8.14,-18.94 8.14,-30.73 0,-11.63 -2.82,-21.92 -8.14,-30.73 C 106.3,18.77 98.66,11.96 88.86,7.14 78.9,2.49 67.6,0 54.98,0 Z m 137.22,0 v 26.24 h 53.66 c 9.96,0 17.93,2.82 23.91,8.47 5.98,5.81 9.14,13.62 9.14,23.42 0,9.97 -3.16,17.77 -9.14,23.42 -5.98,5.65 -13.95,8.47 -23.91,8.47 H 170.11 V 59.13 h -32.89 v 57.14 h 54.98 c 12.63,0 23.92,-2.33 33.89,-7.15 9.8,-4.65 17.44,-11.46 22.92,-20.26 5.31,-8.64 8.14,-18.94 8.14,-30.73 0,-11.63 -2.83,-21.92 -8.14,-30.73 C 243.53,18.77 235.89,11.96 226.09,7.14 216.12,2.49 204.83,0 192.2,0 Z m 202.11,0 v 116.27 h 32.89 V 0 Z m 46.65,0 25.75,36.54 19.6,-24.25 L 423.02,0 Z m 83.22,0 -85.05,116.27 h 37.54 L 504.74,0 Z M 271.12,56.8 v 24.25 h 48.5 V 56.8 Z m 208.87,21.43 -19.27,24.91 8.81,13.13 H 507.4 Z M 356.07,139.1 c -0.96,0 -1.76,0.33 -2.41,0.98 -0.66,0.65 -0.98,1.46 -0.98,2.41 0,0.93 0.32,1.74 0.98,2.41 0.65,0.66 1.45,0.98 2.41,0.98 0.95,0 1.75,-0.32 2.41,-0.98 0.65,-0.67 0.98,-1.48 0.98,-2.41 0,-0.95 -0.33,-1.76 -0.98,-2.41 -0.66,-0.65 -1.46,-0.98 -2.41,-0.98 z m -33.23,1.13 c -1.26,0 -2.34,0.09 -3.24,0.27 -0.9,0.17 -1.66,0.47 -2.26,0.9 -0.58,0.43 -1,1.02 -1.28,1.77 -0.28,0.73 -0.41,1.64 -0.41,2.75 v 3.05 h -3.09 v 4.36 h 3.09 v 14.31 h 5.72 v -14.31 h 4.06 v -4.36 h -4.06 v -2.52 c 0,-0.36 0.02,-0.65 0.07,-0.87 0.08,-0.23 0.2,-0.4 0.38,-0.53 0.2,-0.12 0.47,-0.2 0.79,-0.22 0.33,-0.05 0.74,-0.08 1.24,-0.08 h 1.59 v -4.52 z m 18.17,0 c -1.25,0 -2.33,0.09 -3.23,0.27 -0.91,0.17 -1.66,0.47 -2.26,0.9 -0.58,0.43 -1.01,1.02 -1.28,1.77 -0.28,0.73 -0.42,1.64 -0.42,2.75 v 3.05 h -3.08 v 4.36 h 3.08 v 14.31 h 5.72 v -14.31 h 4.07 v -4.36 h -4.07 v -2.52 c 0,-0.36 0.03,-0.65 0.08,-0.87 0.08,-0.23 0.2,-0.4 0.38,-0.53 0.2,-0.12 0.46,-0.2 0.79,-0.22 0.33,-0.05 0.74,-0.08 1.24,-0.08 h 1.58 v -4.52 z m -341,2.26 v 25.15 h 5.95 v -7.41 l 2.56,-2.83 7.38,10.24 h 6.89 L 12.36,153.26 22.3,142.49 h -7.27 l -9.07,9.98 v -9.98 z m 118.08,0 v 25.15 h 18 v -5.23 h -12.05 v -19.92 z m 99.63,0 v 19.88 c 0,1.11 0.1,2.01 0.3,2.71 0.23,0.68 0.58,1.21 1.05,1.58 0.51,0.38 1.15,0.64 1.92,0.79 0.78,0.13 1.75,0.19 2.9,0.19 h 3.65 v -4.67 h -1.61 c -0.96,0 -1.61,-0.12 -1.96,-0.37 -0.35,-0.28 -0.53,-0.86 -0.53,-1.73 v -18.38 z m 26.93,0 v 5.24 h 8.1 v 19.91 h 5.91 v -19.91 h 8.09 v -5.24 z m 157.9,0 v 25.15 h 17.99 v -5.23 h -12.05 v -19.92 z m 99.62,0 v 19.88 c 0,1.11 0.1,2.01 0.3,2.71 0.23,0.68 0.58,1.21 1.06,1.58 0.5,0.38 1.14,0.64 1.92,0.79 0.78,0.13 1.74,0.19 2.9,0.19 H 512 v -4.67 h -1.62 c -0.95,0 -1.6,-0.12 -1.96,-0.37 -0.35,-0.28 -0.52,-0.86 -0.52,-1.73 v -18.38 z m -219.71,5.94 c -1.21,0.01 -2.25,0.27 -3.13,0.8 -1,0.6 -1.79,1.66 -2.37,3.16 l -1.01,-3.42 h -4.52 v 18.67 h 5.72 v -9.41 c 0,-1.51 0.36,-2.57 1.09,-3.2 0.73,-0.65 1.8,-0.98 3.2,-0.98 0.28,0 0.53,0.01 0.76,0.04 0.22,0 0.49,0.02 0.79,0.07 v -5.72 c -0.18,-0.01 -0.36,-0.01 -0.53,-0.01 z m -245.3,0.01 c -1.36,0 -2.65,0.23 -3.88,0.68 -1.21,0.45 -2.27,1.1 -3.2,1.96 -0.9,0.85 -1.62,1.88 -2.15,3.08 -0.52,1.21 -0.79,2.55 -0.79,4.03 0,1.53 0.25,2.91 0.76,4.14 0.5,1.23 1.2,2.27 2.1,3.13 0.91,0.85 1.99,1.5 3.24,1.96 1.26,0.45 2.64,0.67 4.14,0.67 1.53,0 3.03,-0.34 4.48,-1.01 1.48,-0.68 2.71,-1.73 3.69,-3.17 L 41,162.26 c -0.35,0.42 -0.86,0.76 -1.51,1.01 -0.63,0.25 -1.38,0.38 -2.26,0.38 -0.52,0 -1.04,-0.08 -1.54,-0.23 -0.5,-0.17 -0.95,-0.42 -1.36,-0.75 -0.37,-0.32 -0.7,-0.73 -0.97,-1.2 -0.26,-0.5 -0.41,-1.08 -0.46,-1.74 h 13.82 c 0.1,-1.65 -0.06,-3.17 -0.49,-4.55 -0.4,-1.38 -1.02,-2.56 -1.84,-3.54 -0.83,-1 -1.86,-1.78 -3.09,-2.33 -1.23,-0.58 -2.61,-0.87 -4.14,-0.87 z m 25.67,0 c -1.35,0 -2.64,0.23 -3.87,0.68 -1.21,0.45 -2.27,1.1 -3.2,1.96 -0.91,0.85 -1.62,1.88 -2.15,3.08 -0.53,1.21 -0.79,2.55 -0.79,4.03 0,1.53 0.25,2.91 0.75,4.14 0.51,1.23 1.21,2.27 2.11,3.13 0.91,0.85 1.98,1.5 3.24,1.96 1.25,0.45 2.63,0.67 4.14,0.67 1.53,0 3.03,-0.34 4.48,-1.01 1.48,-0.68 2.71,-1.73 3.69,-3.17 l -4.55,-1.65 c -0.36,0.42 -0.86,0.76 -1.51,1.01 -0.63,0.25 -1.38,0.38 -2.26,0.38 -0.53,0 -1.04,-0.08 -1.54,-0.23 -0.5,-0.17 -0.96,-0.42 -1.36,-0.75 -0.37,-0.32 -0.7,-0.73 -0.98,-1.2 -0.25,-0.5 -0.4,-1.08 -0.45,-1.74 H 72.4 c 0.1,-1.65 -0.07,-3.17 -0.49,-4.55 -0.4,-1.38 -1.02,-2.56 -1.85,-3.54 -0.82,-1 -1.85,-1.78 -3.08,-2.33 -1.23,-0.58 -2.61,-0.87 -4.15,-0.87 z m 28.05,0 c -0.5,0 -1.03,0.06 -1.58,0.19 -0.52,0.12 -1.05,0.32 -1.58,0.6 -0.5,0.25 -0.98,0.57 -1.43,0.94 -0.43,0.38 -0.79,0.83 -1.09,1.36 l -0.75,-2.56 h -4.97 v 24.73 h 5.72 v -8.73 c 0.3,0.53 0.66,0.99 1.09,1.39 0.45,0.38 0.93,0.7 1.43,0.98 0.53,0.25 1.06,0.44 1.58,0.56 0.55,0.13 1.08,0.19 1.58,0.19 1.21,0 2.31,-0.21 3.32,-0.64 1,-0.45 1.87,-1.09 2.59,-1.92 0.76,-0.85 1.34,-1.88 1.74,-3.08 0.4,-1.23 0.6,-2.61 0.6,-4.14 0,-1.51 -0.2,-2.87 -0.6,-4.07 -0.4,-1.23 -0.98,-2.27 -1.74,-3.13 -0.72,-0.85 -1.59,-1.5 -2.59,-1.95 -1.01,-0.48 -2.11,-0.72 -3.32,-0.72 z m 60.93,0 c -1.3,0 -2.56,0.2 -3.76,0.6 -1.18,0.38 -2.23,0.97 -3.16,1.77 -0.91,0.81 -1.63,1.82 -2.19,3.05 -0.52,1.23 -0.79,2.69 -0.79,4.37 0,1.68 0.27,3.15 0.79,4.41 0.56,1.23 1.28,2.24 2.19,3.04 0.93,0.81 1.98,1.41 3.16,1.81 1.2,0.4 2.46,0.6 3.76,0.6 1.28,0 2.51,-0.2 3.69,-0.6 1.21,-0.4 2.26,-1 3.17,-1.81 0.9,-0.8 1.63,-1.81 2.18,-3.04 0.55,-1.26 0.83,-2.73 0.83,-4.41 0,-1.68 -0.28,-3.14 -0.83,-4.37 -0.55,-1.23 -1.28,-2.24 -2.18,-3.05 -0.91,-0.8 -1.96,-1.39 -3.17,-1.77 -1.18,-0.4 -2.41,-0.6 -3.69,-0.6 z m 25.56,0 c -1.43,0 -2.73,0.24 -3.91,0.72 -1.16,0.45 -2.16,1.1 -3.01,1.95 -0.83,0.86 -1.48,1.89 -1.96,3.09 -0.45,1.18 -0.68,2.51 -0.68,3.99 0,1.48 0.2,2.84 0.6,4.07 0.43,1.2 1.04,2.24 1.85,3.12 0.83,0.86 1.83,1.52 3.01,2 1.2,0.47 2.57,0.71 4.1,0.71 0.76,0 1.52,-0.07 2.3,-0.22 0.78,-0.15 1.53,-0.4 2.26,-0.76 0.75,-0.35 1.45,-0.81 2.11,-1.39 0.65,-0.58 1.22,-1.29 1.69,-2.14 l -4.67,-1.7 c -0.32,0.55 -0.76,0.99 -1.31,1.32 -0.56,0.3 -1.23,0.45 -2.04,0.45 -0.5,0 -1,-0.09 -1.5,-0.26 -0.48,-0.2 -0.91,-0.5 -1.28,-0.91 -0.38,-0.42 -0.69,-0.99 -0.94,-1.69 -0.23,-0.7 -0.34,-1.56 -0.34,-2.56 0,-0.98 0.11,-1.81 0.34,-2.49 0.22,-0.7 0.52,-1.25 0.9,-1.65 0.38,-0.43 0.8,-0.73 1.28,-0.91 0.5,-0.2 1.02,-0.3 1.54,-0.3 0.73,0 1.38,0.17 1.96,0.49 0.6,0.33 1.05,0.89 1.36,1.7 l 4.78,-1.74 c -0.43,-0.92 -0.97,-1.7 -1.62,-2.33 -0.63,-0.63 -1.32,-1.13 -2.07,-1.51 -0.73,-0.37 -1.51,-0.64 -2.34,-0.79 -0.8,-0.17 -1.6,-0.26 -2.41,-0.26 z m 23.92,0 c -2.16,0 -3.97,0.42 -5.42,1.24 -1.46,0.83 -2.5,1.87 -3.13,3.13 l 4.82,1.73 c 0.2,-0.75 0.59,-1.31 1.17,-1.66 0.57,-0.37 1.26,-0.56 2.07,-0.56 1,0 1.77,0.22 2.29,0.68 0.56,0.42 0.83,1.18 0.83,2.25 v 0.72 c -1.81,0.13 -3.47,0.34 -5.01,0.64 -1.5,0.28 -2.81,0.67 -3.91,1.17 -1.08,0.5 -1.93,1.15 -2.56,1.95 -0.6,0.78 -0.9,1.74 -0.9,2.87 0,0.85 0.16,1.62 0.49,2.29 0.35,0.68 0.81,1.26 1.39,1.74 0.6,0.47 1.29,0.84 2.07,1.09 0.78,0.25 1.61,0.37 2.48,0.37 1.36,0 2.56,-0.2 3.62,-0.6 1.05,-0.43 1.93,-1.13 2.63,-2.11 l 0.68,2.26 h 5.31 c -0.1,-0.4 -0.19,-0.89 -0.26,-1.47 -0.08,-0.6 -0.14,-1.23 -0.19,-1.88 -0.05,-0.65 -0.1,-1.32 -0.15,-1.99 -0.03,-0.71 -0.04,-1.36 -0.04,-1.96 v -4.11 c 0,-1.4 -0.19,-2.59 -0.57,-3.57 -0.35,-1.01 -0.87,-1.82 -1.58,-2.45 -0.7,-0.63 -1.56,-1.08 -2.59,-1.35 -1.03,-0.28 -2.21,-0.42 -3.54,-0.42 z m 96.53,0 c -2.16,0 -3.96,0.42 -5.42,1.24 -1.46,0.83 -2.5,1.87 -3.12,3.13 l 4.81,1.73 c 0.2,-0.75 0.59,-1.31 1.17,-1.66 0.58,-0.37 1.27,-0.56 2.07,-0.56 1.01,0 1.77,0.22 2.3,0.68 0.55,0.42 0.83,1.18 0.83,2.25 v 0.72 c -1.81,0.13 -3.48,0.34 -5.01,0.64 -1.51,0.28 -2.81,0.67 -3.92,1.17 -1.08,0.5 -1.93,1.15 -2.56,1.95 -0.6,0.78 -0.9,1.74 -0.9,2.87 0,0.85 0.16,1.62 0.49,2.29 0.35,0.68 0.82,1.26 1.39,1.74 0.61,0.47 1.3,0.84 2.07,1.09 0.78,0.25 1.61,0.37 2.49,0.37 1.35,0 2.56,-0.2 3.61,-0.6 1.06,-0.43 1.94,-1.13 2.64,-2.11 l 0.68,2.26 h 5.3 c -0.1,-0.4 -0.18,-0.89 -0.26,-1.47 -0.07,-0.6 -0.14,-1.23 -0.19,-1.88 -0.05,-0.65 -0.1,-1.32 -0.15,-1.99 -0.02,-0.71 -0.04,-1.36 -0.04,-1.96 v -4.11 c 0,-1.4 -0.18,-2.59 -0.56,-3.57 -0.35,-1.01 -0.88,-1.82 -1.58,-2.45 -0.71,-0.63 -1.57,-1.08 -2.6,-1.35 -1.03,-0.28 -2.21,-0.42 -3.54,-0.42 z m 77.56,0 c -1.43,0 -2.73,0.24 -3.91,0.72 -1.16,0.45 -2.16,1.1 -3.01,1.95 -0.83,0.86 -1.49,1.89 -1.96,3.09 -0.45,1.18 -0.68,2.51 -0.68,3.99 0,1.48 0.2,2.84 0.6,4.07 0.43,1.2 1.04,2.24 1.85,3.12 0.83,0.86 1.83,1.52 3.01,2 1.2,0.47 2.57,0.71 4.1,0.71 0.76,0 1.52,-0.07 2.3,-0.22 0.78,-0.15 1.53,-0.4 2.26,-0.76 0.75,-0.35 1.45,-0.81 2.11,-1.39 0.65,-0.58 1.22,-1.29 1.69,-2.14 l -4.67,-1.7 c -0.32,0.55 -0.76,0.99 -1.31,1.32 -0.56,0.3 -1.23,0.45 -2.04,0.45 -0.5,0 -1,-0.09 -1.5,-0.26 -0.48,-0.2 -0.91,-0.5 -1.28,-0.91 -0.38,-0.42 -0.69,-0.99 -0.95,-1.69 -0.22,-0.7 -0.33,-1.56 -0.33,-2.56 0,-0.98 0.11,-1.81 0.33,-2.49 0.23,-0.7 0.53,-1.25 0.91,-1.65 0.37,-0.43 0.8,-0.73 1.28,-0.91 0.5,-0.2 1.02,-0.3 1.54,-0.3 0.73,0 1.38,0.17 1.96,0.49 0.6,0.33 1.05,0.89 1.36,1.7 l 4.78,-1.74 c -0.43,-0.92 -0.97,-1.7 -1.62,-2.33 -0.63,-0.63 -1.32,-1.13 -2.07,-1.51 -0.73,-0.37 -1.51,-0.64 -2.34,-0.79 -0.8,-0.17 -1.6,-0.26 -2.41,-0.26 z m 60.89,0 c -1.31,0 -2.56,0.2 -3.77,0.6 -1.18,0.38 -2.23,0.97 -3.16,1.77 -0.9,0.81 -1.63,1.82 -2.18,3.05 -0.53,1.23 -0.79,2.69 -0.79,4.37 0,1.68 0.26,3.15 0.79,4.41 0.55,1.23 1.28,2.24 2.18,3.04 0.93,0.81 1.98,1.41 3.16,1.81 1.21,0.4 2.46,0.6 3.77,0.6 1.28,0 2.51,-0.2 3.69,-0.6 1.2,-0.4 2.26,-1 3.16,-1.81 0.9,-0.8 1.63,-1.81 2.18,-3.04 0.56,-1.26 0.83,-2.73 0.83,-4.41 0,-1.68 -0.27,-3.14 -0.83,-4.37 -0.55,-1.23 -1.28,-2.24 -2.18,-3.05 -0.9,-0.8 -1.96,-1.39 -3.16,-1.77 -1.18,-0.4 -2.41,-0.6 -3.69,-0.6 z m 25.56,0 c -1.43,0 -2.74,0.24 -3.92,0.72 -1.15,0.45 -2.15,1.1 -3.01,1.95 -0.83,0.86 -1.48,1.89 -1.96,3.09 -0.45,1.18 -0.67,2.51 -0.67,3.99 0,1.48 0.2,2.84 0.6,4.07 0.43,1.2 1.04,2.24 1.84,3.12 0.83,0.86 1.83,1.52 3.01,2 1.21,0.47 2.58,0.71 4.11,0.71 0.75,0 1.52,-0.07 2.29,-0.22 0.78,-0.15 1.54,-0.4 2.26,-0.76 0.76,-0.35 1.46,-0.81 2.11,-1.39 0.65,-0.58 1.22,-1.29 1.7,-2.14 l -4.67,-1.7 c -0.33,0.55 -0.77,0.99 -1.32,1.32 -0.55,0.3 -1.23,0.45 -2.03,0.45 -0.5,0 -1.01,-0.09 -1.51,-0.26 -0.47,-0.2 -0.9,-0.5 -1.28,-0.91 -0.38,-0.42 -0.69,-0.99 -0.94,-1.69 -0.23,-0.7 -0.34,-1.56 -0.34,-2.56 0,-0.98 0.11,-1.81 0.34,-2.49 0.23,-0.7 0.53,-1.25 0.9,-1.65 0.38,-0.43 0.81,-0.73 1.28,-0.91 0.51,-0.2 1.02,-0.3 1.55,-0.3 0.73,0 1.38,0.17 1.95,0.49 0.61,0.33 1.06,0.89 1.36,1.7 l 4.78,-1.74 c -0.42,-0.92 -0.96,-1.7 -1.62,-2.33 -0.62,-0.63 -1.31,-1.13 -2.07,-1.51 -0.73,-0.37 -1.5,-0.64 -2.33,-0.79 -0.8,-0.17 -1.61,-0.26 -2.41,-0.26 z m 23.91,0 c -2.16,0 -3.96,0.42 -5.42,1.24 -1.46,0.83 -2.5,1.87 -3.12,3.13 l 4.81,1.73 c 0.2,-0.75 0.59,-1.31 1.17,-1.66 0.58,-0.37 1.27,-0.56 2.07,-0.56 1.01,0 1.77,0.22 2.3,0.68 0.55,0.42 0.83,1.18 0.83,2.25 v 0.72 c -1.81,0.13 -3.48,0.34 -5.01,0.64 -1.51,0.28 -2.81,0.67 -3.91,1.17 -1.08,0.5 -1.94,1.15 -2.57,1.95 -0.6,0.78 -0.9,1.74 -0.9,2.87 0,0.85 0.16,1.62 0.49,2.29 0.35,0.68 0.82,1.26 1.39,1.74 0.61,0.47 1.3,0.84 2.07,1.09 0.78,0.25 1.61,0.37 2.49,0.37 1.35,0 2.56,-0.2 3.61,-0.6 1.06,-0.43 1.93,-1.13 2.64,-2.11 l 0.68,2.26 h 5.3 c -0.1,-0.4 -0.18,-0.89 -0.26,-1.47 -0.07,-0.6 -0.14,-1.23 -0.19,-1.88 -0.05,-0.65 -0.1,-1.32 -0.15,-1.99 -0.02,-0.71 -0.03,-1.36 -0.03,-1.96 v -4.11 c 0,-1.4 -0.19,-2.59 -0.57,-3.57 -0.35,-1.01 -0.88,-1.82 -1.58,-2.45 -0.7,-0.63 -1.57,-1.08 -2.6,-1.35 -1.03,-0.28 -2.21,-0.42 -3.54,-0.42 z m -136.11,0.53 v 4.36 h 3.54 v 14.31 h 5.76 V 148.97 Z M 37.31,152.7 c 1.13,0 2.08,0.31 2.86,0.94 0.78,0.6 1.19,1.5 1.24,2.71 H 32.9 c 0.18,-1.28 0.68,-2.21 1.51,-2.79 0.85,-0.58 1.82,-0.86 2.9,-0.86 z m 25.68,0 c 1.13,0 2.08,0.31 2.86,0.94 0.78,0.6 1.19,1.5 1.24,2.71 h -8.51 c 0.18,-1.28 0.68,-2.21 1.51,-2.79 0.85,-0.58 1.82,-0.86 2.9,-0.86 z m 26.09,0.18 c 0.55,0 1.08,0.13 1.58,0.38 0.5,0.23 0.94,0.58 1.32,1.05 0.37,0.46 0.66,1.02 0.86,1.7 0.23,0.68 0.34,1.44 0.34,2.3 0,0.87 -0.11,1.65 -0.34,2.33 -0.2,0.65 -0.49,1.2 -0.86,1.66 -0.38,0.45 -0.82,0.79 -1.32,1.01 -0.5,0.23 -1.03,0.34 -1.58,0.34 -1.13,0 -2.11,-0.43 -2.94,-1.28 -0.8,-0.88 -1.2,-2.27 -1.2,-4.18 0,-0.95 0.11,-1.77 0.34,-2.45 0.22,-0.67 0.52,-1.23 0.9,-1.65 0.37,-0.43 0.81,-0.73 1.32,-0.91 0.5,-0.2 1.03,-0.3 1.58,-0.3 z m 62.73,0 c 0.56,0 1.07,0.1 1.55,0.3 0.5,0.18 0.93,0.48 1.28,0.91 0.38,0.4 0.66,0.95 0.86,1.65 0.23,0.68 0.34,1.51 0.34,2.49 0,1.96 -0.39,3.35 -1.16,4.18 -0.76,0.83 -1.71,1.24 -2.87,1.24 -1.18,0 -2.15,-0.41 -2.93,-1.24 -0.76,-0.83 -1.13,-2.22 -1.13,-4.18 0,-0.98 0.1,-1.81 0.3,-2.49 0.22,-0.7 0.51,-1.25 0.87,-1.65 0.37,-0.43 0.81,-0.73 1.31,-0.91 0.5,-0.2 1.03,-0.3 1.58,-0.3 z m 284.46,0 c 0.55,0 1.07,0.1 1.54,0.3 0.5,0.18 0.93,0.48 1.28,0.91 0.38,0.4 0.67,0.95 0.87,1.65 0.22,0.68 0.34,1.51 0.34,2.49 0,1.96 -0.39,3.35 -1.17,4.18 -0.75,0.83 -1.71,1.24 -2.86,1.24 -1.18,0 -2.16,-0.41 -2.94,-1.24 -0.75,-0.83 -1.13,-2.22 -1.13,-4.18 0,-0.98 0.1,-1.81 0.3,-2.49 0.23,-0.7 0.52,-1.25 0.87,-1.65 0.38,-0.43 0.82,-0.73 1.32,-0.91 0.5,-0.2 1.03,-0.3 1.58,-0.3 z m -232.23,6.48 v 0.45 c 0,0.85 -0.1,1.57 -0.31,2.15 -0.2,0.55 -0.47,0.99 -0.82,1.31 -0.36,0.33 -0.77,0.57 -1.25,0.72 -0.47,0.13 -1,0.19 -1.58,0.19 -0.75,0 -1.38,-0.18 -1.88,-0.53 -0.5,-0.38 -0.75,-0.87 -0.75,-1.47 0,-0.5 0.15,-0.9 0.45,-1.2 0.32,-0.33 0.78,-0.59 1.35,-0.79 0.58,-0.23 1.27,-0.4 2.07,-0.53 0.83,-0.12 1.74,-0.22 2.72,-0.3 z m 96.53,0 v 0.45 c 0,0.85 -0.1,1.57 -0.3,2.15 -0.2,0.55 -0.48,0.99 -0.83,1.31 -0.35,0.33 -0.77,0.57 -1.24,0.72 -0.48,0.13 -1.01,0.19 -1.58,0.19 -0.76,0 -1.38,-0.18 -1.89,-0.53 -0.5,-0.38 -0.75,-0.87 -0.75,-1.47 0,-0.5 0.15,-0.9 0.45,-1.2 0.33,-0.33 0.78,-0.59 1.36,-0.79 0.57,-0.23 1.27,-0.4 2.07,-0.53 0.83,-0.12 1.73,-0.22 2.71,-0.3 z m 187.92,0 v 0.45 c 0,0.85 -0.1,1.57 -0.3,2.15 -0.2,0.55 -0.48,0.99 -0.83,1.31 -0.35,0.33 -0.76,0.57 -1.24,0.72 -0.48,0.13 -1.01,0.19 -1.58,0.19 -0.76,0 -1.38,-0.18 -1.89,-0.53 -0.5,-0.38 -0.75,-0.87 -0.75,-1.47 0,-0.5 0.15,-0.9 0.45,-1.2 0.33,-0.33 0.78,-0.59 1.36,-0.79 0.58,-0.23 1.27,-0.4 2.07,-0.53 0.83,-0.12 1.73,-0.22 2.71,-0.3 z"
     fill="#ffffff" /></svg>
