<?xml version="1.0" encoding="UTF-8" standalone="no"?>
<svg
   id="svg31"
   xml:space="preserve"
   viewBox="0 0 507.40619 116.27741"
   y="0px"
   x="0px"
   version="1.1"
   sodipodi:docname="ddix-logo-noslogan.svg"
   width="507.40619"
   height="116.27741"
   inkscape:version="1.2.2 (b0a8486541, 2022-12-01)"
   xmlns:inkscape="http://www.inkscape.org/namespaces/inkscape"
   xmlns:sodipodi="http://sodipodi.sourceforge.net/DTD/sodipodi-0.dtd"
   xmlns="http://www.w3.org/2000/svg"
   xmlns:svg="http://www.w3.org/2000/svg"
   xmlns:rdf="http://www.w3.org/1999/02/22-rdf-syntax-ns#"
   xmlns:cc="http://creativecommons.org/ns#"
   xmlns:dc="http://purl.org/dc/elements/1.1/"><sodipodi:namedview
     id="namedview33"
     pagecolor="#ffffff"
     bordercolor="#999999"
     borderopacity="1"
     inkscape:showpageshadow="0"
     inkscape:pageopacity="0"
     inkscape:pagecheckerboard="0"
     inkscape:deskcolor="#d1d1d1"
     showgrid="false"
     inkscape:zoom="0.98697917"
     inkscape:cx="255.83113"
     inkscape:cy="87.134565"
     inkscape:window-width="1920"
     inkscape:window-height="1019"
     inkscape:window-x="0"
     inkscape:window-y="0"
     inkscape:window-maximized="1"
     inkscape:current-layer="svg31" /><metadata
     id="metadata37"><rdf:RDF><cc:Work
         rdf:about=""><dc:format>image/svg+xml</dc:format><dc:type
           rdf:resource="http://purl.org/dc/dcmitype/StillImage" /></cc:Work></rdf:RDF></metadata><defs
     id="defs35" /><path
     d="M 111.788,27.40716 C 106.30656,18.769752 98.665776,11.959488 88.86564,7.142472 78.8994,2.49156 67.604328,0 54.980424,0 H 0 v 26.244432 h 53.651592 c 9.96624,0 17.939232,2.823768 23.918976,8.471304 5.979744,5.81364 9.13572,13.620528 9.13572,23.420664 0,9.96624 -3.155976,17.773128 -9.13572,23.420664 -5.979744,5.647536 -13.952736,8.471304 -23.918976,8.471304 h -20.763 V 59.133024 H 0 V 116.2728 h 54.980424 c 12.623904,0 23.918976,-2.32546 33.885216,-7.14247 9.800136,-4.65091 17.44092,-11.461178 22.92235,-20.26469 5.31533,-8.637408 8.1391,-18.935856 8.1391,-30.72924 0,-11.62728 -2.82377,-21.925728 -8.13909,-30.72924 z"
     style="font-variant-ligatures:none;fill:#209680;stroke-width:0;stroke-miterlimit:2"
     id="path404016" /><path
     d="M 249.00835,27.40716 C 243.52692,18.769752 235.88614,11.959488 226.086,7.142472 216.11976,2.49156 204.82469,0 192.20079,0 h -54.98043 v 26.244432 h 53.6516 c 9.96623,0 17.93923,2.823768 23.91897,8.471304 5.97975,5.81364 9.13572,13.620528 9.13572,23.420664 0,9.96624 -3.15597,17.773128 -9.13572,23.420664 -5.97974,5.647536 -13.95274,8.471304 -23.91897,8.471304 h -20.763 V 59.133024 h -32.8886 V 116.2728 h 54.98043 c 12.6239,0 23.91897,-2.32546 33.88521,-7.14247 9.80014,-4.65091 17.44092,-11.461178 22.92235,-20.26469 5.31533,-8.637408 8.1391,-18.935856 8.1391,-30.72924 0,-11.62728 -2.82377,-21.925728 -8.1391,-30.72924 z"
     style="font-variant-ligatures:none;fill:#209680;stroke-width:0;stroke-miterlimit:2"
     id="path404018" /><path
     d="m 271.12095,56.809875 v 24.251184 h 48.50237 V 56.809875 Z"
     style="font-variant-ligatures:none;fill:#209680;stroke-width:0;stroke-miterlimit:2"
     id="path404020" /><path
     d="m 339.33894,0 v 116.2728 h 32.88859 V 0 Z"
     style="font-variant-ligatures:none;fill:#209680;stroke-width:0;stroke-miterlimit:2"
     id="path404022" /><path
     d="M 431.33057,12.29631 423.02536,0.004614 h -37.04119 l 25.74612,36.54288 z m 48.66847,65.943288 -19.26807,24.915602 8.80351,13.12221 H 507.4062 Z M 504.74853,0.004614 H 469.20228 L 384.15703,116.27741 h 37.5395 z"
     style="font-variant-ligatures:none;fill:#ccff00;stroke-width:0;stroke-miterlimit:2"
     id="path404024" /></svg>
